<svg width="42" height="42" viewBox="0 0 42 42" fill="none" xmlns="http://www.w3.org/2000/svg">
<rect x="41" y="1" width="40" height="40" rx="10" transform="rotate(90 41 1)" fill="#10B981"/>
<path d="M28.11 13.9601C24.2 10.0501 17.85 10.0501 13.94 13.9601C9.95997 17.9401 10.03 24.4301 14.14 28.3301C17.94 31.9201 24.1 31.9201 27.9 28.3301C32.02 24.4301 32.09 17.9401 28.11 13.9601ZM25.38 25.6501C24.18 26.7901 22.6 27.3601 21.02 27.3601C19.44 27.3601 17.86 26.7901 16.66 25.6501C16.36 25.3601 16.35 24.8901 16.63 24.5901C16.92 24.2901 17.39 24.2801 17.69 24.5601C19.52 26.2901 22.51 26.3001 24.35 24.5601C24.65 24.2801 25.13 24.2901 25.41 24.5901C25.7 24.8901 25.68 25.3601 25.38 25.6501Z" fill="#ECFDF5"/>
<rect x="41" y="1" width="40" height="40" rx="10" transform="rotate(90 41 1)" stroke="#10B981" stroke-width="0.5"/>
</svg>
