<svg width="42" height="42" viewBox="0 0 42 42" fill="none" xmlns="http://www.w3.org/2000/svg">
<rect x="41" y="1" width="40" height="40" rx="10" transform="rotate(90 41 1)" fill="#F3F4F6"/>
<path d="M22.2599 12.6L14.0499 21.29C13.7399 21.62 13.4399 22.27 13.3799 22.72L13.0099 25.96C12.8799 27.13 13.7199 27.93 14.8799 27.73L18.0999 27.18C18.5499 27.1 19.1799 26.77 19.4899 26.43L27.6999 17.74C29.1199 16.24 29.7599 14.53 27.5499 12.44C25.3499 10.37 23.6799 11.1 22.2599 12.6Z" stroke="#374151" stroke-miterlimit="10" stroke-linecap="round" stroke-linejoin="round"/>
<path d="M20.8901 14.05C21.3201 16.81 23.5601 18.92 26.3401 19.2" stroke="#374151" stroke-miterlimit="10" stroke-linecap="round" stroke-linejoin="round"/>
<path d="M12 31H30" stroke="#374151" stroke-miterlimit="10" stroke-linecap="round" stroke-linejoin="round"/>
<rect x="41" y="1" width="40" height="40" rx="10" transform="rotate(90 41 1)" stroke="#F3F4F6" stroke-width="0.5"/>
</svg>
