<svg width="42" height="42" viewBox="0 0 42 42" fill="none" xmlns="http://www.w3.org/2000/svg">
<rect x="41" y="1" width="40" height="40" rx="10" transform="rotate(90 41 1)" fill="#10B981"/>
<path d="M30 31H12C11.59 31 11.25 30.66 11.25 30.25C11.25 29.84 11.59 29.5 12 29.5H30C30.41 29.5 30.75 29.84 30.75 30.25C30.75 30.66 30.41 31 30 31Z" fill="#ECFDF5"/>
<path d="M28.0201 12.4802C26.0801 10.5402 24.1801 10.4902 22.1901 12.4802L20.9801 13.6902C20.8801 13.7902 20.8401 13.9502 20.8801 14.0902C21.6401 16.7402 23.7601 18.8602 26.4101 19.6202C26.4501 19.6302 26.4901 19.6402 26.5301 19.6402C26.6401 19.6402 26.7401 19.6002 26.8201 19.5202L28.0201 18.3102C29.0101 17.3302 29.4901 16.3802 29.4901 15.4202C29.5001 14.4302 29.0201 13.4702 28.0201 12.4802Z" fill="#ECFDF5"/>
<path d="M24.6098 20.5298C24.3198 20.3898 24.0398 20.2498 23.7698 20.0898C23.5498 19.9598 23.3398 19.8198 23.1298 19.6698C22.9598 19.5598 22.7598 19.3998 22.5698 19.2398C22.5498 19.2298 22.4798 19.1698 22.3998 19.0898C22.0698 18.8098 21.6998 18.4498 21.3698 18.0498C21.3398 18.0298 21.2898 17.9598 21.2198 17.8698C21.1198 17.7498 20.9498 17.5498 20.7998 17.3198C20.6798 17.1698 20.5398 16.9498 20.4098 16.7298C20.2498 16.4598 20.1098 16.1898 19.9698 15.9098C19.9486 15.8644 19.9281 15.8192 19.9083 15.7743C19.7607 15.441 19.3261 15.3436 19.0683 15.6013L13.3398 21.3298C13.2098 21.4598 13.0898 21.7098 13.0598 21.8798L12.5198 25.7098C12.4198 26.3898 12.6098 27.0298 13.0298 27.4598C13.3898 27.8098 13.8898 27.9998 14.4298 27.9998C14.5498 27.9998 14.6698 27.9898 14.7898 27.9698L18.6298 27.4298C18.8098 27.3998 19.0598 27.2798 19.1798 27.1498L24.9011 21.4285C25.1607 21.1689 25.0628 20.7235 24.7252 20.5794C24.6872 20.5632 24.6488 20.5467 24.6098 20.5298Z" fill="#ECFDF5"/>
<rect x="41" y="1" width="40" height="40" rx="10" transform="rotate(90 41 1)" stroke="#10B981" stroke-width="0.5"/>
</svg>
