<svg width="42" height="42" viewBox="0 0 42 42" fill="none" xmlns="http://www.w3.org/2000/svg">
<rect x="41" y="1" width="40" height="40" rx="10" transform="rotate(90 41 1)" fill="#F3F4F6"/>
<path d="M30.5302 24.93C30.3702 24.66 29.9202 24.24 28.8002 24.44C28.1802 24.55 27.5502 24.6 26.9202 24.57C24.5902 24.47 22.4802 23.4 21.0102 21.75C19.7102 20.3 18.9102 18.41 18.9002 16.37C18.9002 15.23 19.1202 14.13 19.5702 13.09C20.0102 12.08 19.7002 11.55 19.4802 11.33C19.2502 11.1 18.7102 10.78 17.6502 11.22C13.5602 12.94 11.0302 17.04 11.3302 21.43C11.6302 25.56 14.5302 29.09 18.3702 30.42C19.2902 30.74 20.2602 30.93 21.2602 30.97C21.4202 30.98 21.5802 30.99 21.7402 30.99C25.0902 30.99 28.2302 29.41 30.2102 26.72C30.8802 25.79 30.7002 25.2 30.5302 24.93Z" fill="#374151"/>
<rect x="41" y="1" width="40" height="40" rx="10" transform="rotate(90 41 1)" stroke="#F3F4F6" stroke-width="0.5"/>
</svg>
