<svg width="42" height="42" viewBox="0 0 42 42" fill="none" xmlns="http://www.w3.org/2000/svg">
<rect x="41" y="1" width="40" height="40" rx="10" transform="rotate(90 41 1)" fill="#10B981"/>
<path d="M29.83 17.01L23.28 11.77C22 10.75 20 10.74 18.73 11.76L12.18 17.01C11.24 17.76 10.67 19.26 10.87 20.44L12.13 27.98C12.42 29.67 13.99 31 15.7 31H26.3C27.99 31 29.59 29.64 29.88 27.97L31.14 20.43C31.32 19.26 30.75 17.76 29.83 17.01ZM21.75 27C21.75 27.41 21.41 27.75 21 27.75C20.59 27.75 20.25 27.41 20.25 27V24C20.25 23.59 20.59 23.25 21 23.25C21.41 23.25 21.75 23.59 21.75 24V27Z" fill="#ECFDF5"/>
<rect x="41" y="1" width="40" height="40" rx="10" transform="rotate(90 41 1)" stroke="#10B981" stroke-width="0.5"/>
</svg>
