<svg width="24" height="24" viewBox="0 0 24 24" fill="none" xmlns="http://www.w3.org/2000/svg">
<path d="M7.27476 21V8.85543H3.23816V21H7.27476ZM5.25698 7.1963C6.66462 7.1963 7.5408 6.26374 7.5408 5.09835C7.51458 3.90668 6.66467 3 5.28369 3C3.90293 3 3 3.90669 3 5.09835C3 6.26379 3.87597 7.1963 5.23063 7.1963H5.25686H5.25698ZM9.50901 21H13.5456V14.2179C13.5456 13.8549 13.5718 13.4923 13.6784 13.2328C13.9703 12.5076 14.6344 11.7565 15.7495 11.7565C17.2102 11.7565 17.7945 12.8702 17.7945 14.5028V20.9999H21.8309V14.0363C21.8309 10.306 19.8395 8.57031 17.1836 8.57031C15.006 8.57031 14.0499 9.78751 13.5188 10.6165H13.5457V8.85518H9.5091C9.56207 9.99476 9.5091 20.9998 9.5091 20.9998L9.50901 21Z" fill="#374151"/>
</svg>
