<svg width="42" height="42" viewBox="0 0 42 42" fill="none" xmlns="http://www.w3.org/2000/svg">
<rect x="41" y="1" width="40" height="40" rx="10" transform="rotate(90 41 1)" fill="#F3F4F6"/>
<path d="M21.0001 16.89L19.9301 18.75C19.6901 19.16 19.8901 19.5 20.3601 19.5H21.6301C22.1101 19.5 22.3001 19.84 22.0601 20.25L21.0001 22.11" stroke="#374151" stroke-linecap="round" stroke-linejoin="round"/>
<path d="M17.2999 27.0401V25.8801C14.9999 24.4901 13.1099 21.7801 13.1099 18.9001C13.1099 13.9501 17.6599 10.0701 22.7999 11.1901C25.0599 11.6901 27.0399 13.1901 28.0699 15.2601C30.1599 19.4601 27.9599 23.9201 24.7299 25.8701V27.0301C24.7299 27.3201 24.8399 27.9901 23.7699 27.9901H18.2599C17.1599 28.0001 17.2999 27.5701 17.2999 27.0401Z" stroke="#374151" stroke-linecap="round" stroke-linejoin="round"/>
<path d="M17.5 31C19.79 30.35 22.21 30.35 24.5 31" stroke="#374151" stroke-linecap="round" stroke-linejoin="round"/>
<rect x="41" y="1" width="40" height="40" rx="10" transform="rotate(90 41 1)" stroke="#F3F4F6" stroke-width="0.5"/>
</svg>
