<svg width="42" height="42" viewBox="0 0 42 42" fill="none" xmlns="http://www.w3.org/2000/svg">
<rect x="41" y="1" width="40" height="40" rx="10" transform="rotate(90 41 1)" fill="#10B981"/>
<path d="M24.2602 30.9999C24.2002 30.9999 24.1302 30.9899 24.0702 30.9699C22.0602 30.3999 19.9502 30.3999 17.9402 30.9699C17.5702 31.0699 17.1802 30.8599 17.0802 30.4899C16.9702 30.1199 17.1902 29.7299 17.5602 29.6299C19.8202 28.9899 22.2002 28.9899 24.4602 29.6299C24.8302 29.7399 25.0502 30.1199 24.9402 30.4899C24.8402 30.7999 24.5602 30.9999 24.2602 30.9999Z" fill="#ECFDF5"/>
<path d="M28.2102 15.36C27.1702 13.26 25.1602 11.71 22.8302 11.2C20.3902 10.66 17.8902 11.24 15.9802 12.78C14.0602 14.31 12.9702 16.6 12.9702 19.05C12.9702 21.64 14.5202 24.35 16.8602 25.92V26.75C16.8502 27.03 16.8402 27.46 17.1802 27.81C17.5302 28.17 18.0502 28.21 18.4602 28.21H23.5902C24.1302 28.21 24.5402 28.06 24.8202 27.78C25.2002 27.39 25.1902 26.89 25.1802 26.62V25.92C28.2802 23.83 30.2302 19.42 28.2102 15.36ZM22.7202 20.62L21.6502 22.48C21.5102 22.72 21.2602 22.86 21.0002 22.86C20.8702 22.86 20.7402 22.83 20.6302 22.76C20.2702 22.55 20.1502 22.09 20.3502 21.74L21.2002 20.26H20.3602C19.8602 20.26 19.4502 20.04 19.2302 19.67C19.0102 19.29 19.0302 18.83 19.2802 18.39L20.3502 16.53C20.5602 16.17 21.0202 16.05 21.3702 16.25C21.7302 16.46 21.8502 16.92 21.6502 17.27L20.8002 18.75H21.6402C22.1402 18.75 22.5502 18.97 22.7702 19.34C22.9902 19.72 22.9702 20.19 22.7202 20.62Z" fill="#ECFDF5"/>
<rect x="41" y="1" width="40" height="40" rx="10" transform="rotate(90 41 1)" stroke="#10B981" stroke-width="0.5"/>
</svg>
